# Blender v2.93.5 OBJ File: 'ATB1.blend'
# www.blender.org
mtllib ATB1.mtl
o Areas:building.002
v -74.492188 32.994125 -12.190430
v -76.796875 33.453606 -21.403320
v -63.482910 33.849136 -26.142578
v -64.773926 34.214962 -38.690300
v -49.868652 34.443512 -42.518433
v -46.762695 33.782505 -23.258789
v -43.779297 33.416050 -15.487305
v -41.285645 33.097286 -8.726562
v -36.231934 32.801144 -2.446289
v -32.914551 32.454262 4.911133
v -31.545410 32.095924 12.864258
v -32.224121 31.882511 20.917969
v -34.895996 32.110531 28.523438
v -39.382324 32.382664 35.234375
v -45.415527 32.070061 40.586914
v -55.033691 31.659393 45.028320
v -75.872559 30.067566 43.635742
v -84.811523 29.827822 37.935547
v -91.379395 30.017756 29.633789
v -94.886230 30.667700 19.641602
v -94.062500 31.521587 8.340820
v -89.765137 32.454395 -1.551758
v -83.008301 32.697849 -6.440430
v -83.809570 32.859497 -9.173828
v -74.492188 77.852242 -12.190430
v -83.809570 77.852242 -9.173828
v -83.008301 77.852242 -6.440430
v -89.765137 77.852242 -1.551758
v -94.062500 77.852242 8.340820
v -94.886230 77.852242 19.641602
v -91.379395 77.852242 29.633789
v -84.811523 77.852242 37.935547
v -75.872559 77.852242 43.635742
v -55.033691 77.852242 45.028320
v -45.415527 77.852242 40.586914
v -39.382324 77.852242 35.234375
v -34.895996 77.852242 28.523438
v -32.224121 77.852242 20.917969
v -31.545410 77.852242 12.864258
v -32.914551 77.852242 4.911133
v -36.231934 77.852242 -2.446289
v -41.285645 77.852242 -8.726562
v -43.779297 77.852242 -15.487305
v -46.762695 69.643311 -23.258789
v -49.868652 69.643311 -42.518433
v -64.773926 69.643311 -38.690300
v -63.482910 69.643311 -26.142578
v -76.796875 68.147804 -21.403320
v -49.524921 34.370358 -35.726807
v -63.653770 33.897552 -27.109711
v -48.310417 49.203011 -30.244827
v -60.332886 34.283058 -39.830894
v -60.332886 49.307198 -39.830894
v -54.883797 49.307198 -41.230389
v -54.883797 34.366611 -41.230389
v -48.310417 34.111889 -30.244827
v -63.653770 49.159718 -27.109711
v -64.630829 34.174412 -32.640209
v -49.524921 49.203011 -35.726807
v -64.630829 49.159718 -32.640209
vt -1.162700 3.127739
vt -1.451531 4.058193
vt -2.064258 3.799889
vt -0.809994 3.268353
vt -0.743743 4.161205
vt -0.818606 1.423724
vt -2.149948 1.234110
vt -1.628471 0.798633
vt 2.178378 2.570695
vt 3.425810 2.528630
vt 2.709769 3.051406
vt -2.844375 2.410942
vt -1.408754 2.912574
vt -2.524761 3.387876
vt -0.383216 3.323461
vt 0.042508 4.117524
vt -0.040483 0.258193
vt -0.218196 0.998904
vt -0.540985 0.399182
vt 1.059416 2.922994
vt 0.981931 0.162511
vt 0.427208 0.908640
vt 0.471707 0.181659
vt -2.561007 1.734647
vt -1.530288 2.228604
vt 1.481821 0.191594
vt 0.768730 0.930362
vt 0.655219 3.127754
vt 1.362700 3.757401
vt 0.788442 3.952678
vt -0.442565 1.241997
vt -1.019110 0.443744
vt 1.587997 3.649440
vt 2.408545 -0.087137
vt 1.425924 1.070009
vt 1.773104 -0.112421
vt -1.358790 1.882833
vt 0.095629 0.932597
vt 2.165124 3.351754
vt 1.571462 2.591860
vt 4.887201 0.285306
vt 4.183678 0.586665
vt 5.151355 0.747862
vt 4.498090 1.353967
vt 3.926652 1.151052
vt 5.256545 1.140505
vt -1.130055 1.642300
vt 2.753988 1.964461
vt 3.463486 2.227363
vt 3.125864 2.319693
vt 0.136528 3.272345
vt 2.639813 1.046083
vt -0.016430 1.107916
vt 0.443355 1.030863
vt 0.926530 1.016532
vt 1.935745 1.093124
vt 3.108601 -0.004779
vt 1.140094 2.905684
vt 3.528696 0.520853
vt 4.230164 1.761352
vt 4.134776 2.219756
vt 3.612848 1.763736
vt 3.727189 0.055964
vt 3.776849 2.472771
vt 4.446901 2.067123
vt 3.467588 2.487249
vt 1.114620 1.000870
vn -0.7842 0.0000 0.6205
vn -0.9436 0.0000 0.3312
vn 0.8313 0.0000 0.5558
vn -0.3353 0.0000 -0.9421
vn -0.0667 0.0000 0.9978
vn -0.9974 0.0000 -0.0727
vn -0.5377 0.0000 0.8432
vn 0.9965 0.0000 0.0840
vn 0.0000 1.0000 -0.0000
vn 0.9116 0.0000 -0.4110
vn 0.4192 0.0000 0.9079
vn 0.7791 0.0000 -0.6269
vn -0.5862 0.0000 -0.8102
vn 0.9435 0.0000 0.3315
vn -0.9596 0.0000 0.2813
vn 0.9382 0.0000 -0.3461
vn 0.6636 0.0000 0.7480
vn 0.9855 0.0000 -0.1697
vn -0.9701 0.0000 0.2427
vn -0.9987 0.0000 0.0505
vn -0.2488 0.0000 -0.9686
vn -0.9848 0.0000 0.1740
vn -0.9172 0.0000 -0.3984
vn 0.1282 0.6569 -0.7430
vn 0.9336 0.0000 -0.3584
vn -0.3098 0.6923 -0.6517
vn -0.0579 0.8398 -0.5398
vn 0.9748 -0.0554 -0.2160
vn 0.9763 0.0000 -0.2163
vn 0.9987 0.0000 -0.0505
vn 0.9997 0.0000 -0.0236
vn -0.9997 0.0000 0.0236
vn -0.3080 0.0000 -0.9514
vn -0.9945 0.0233 0.1023
vn 0.9870 -0.0203 -0.1592
usemtl Material.001
s off
f 32/1/1 19/2/1 18/3/1
f 31/4/2 20/5/2 19/2/2
f 37/6/3 14/7/3 13/8/3
f 48/9/4 3/10/4 2/11/4
f 16/12/5 33/13/5 17/14/5
f 30/15/6 21/16/6 20/5/6
f 17/14/7 32/1/7 18/3/7
f 11/17/8 38/18/8 12/19/8
f 30/15/9 31/4/9 27/20/9
f 9/21/10 40/22/10 10/23/10
f 15/24/11 34/25/11 16/12/11
f 8/26/12 41/27/12 9/21/12
f 28/28/13 23/29/13 22/30/13
f 38/31/14 13/8/14 12/32/14
f 27/20/15 24/33/15 23/29/15
f 7/34/16 42/35/16 8/36/16
f 14/7/17 35/37/17 15/24/17
f 10/23/18 39/38/18 11/17/18
f 48/9/19 1/39/19 25/40/19
f 49/41/20 59/42/20 5/43/20
f 5/43/21 54/44/21 45/45/21
f 55/46/21 54/44/21 5/43/21
f 27/20/9 36/47/9 25/40/9
f 47/48/22 60/49/22 57/50/22
f 29/51/23 22/30/23 21/16/23
f 34/25/9 35/37/9 27/20/9
f 45/45/9 47/48/9 44/52/9
f 36/47/9 37/6/9 25/40/9
f 37/6/9 38/31/9 25/40/9
f 38/31/9 39/53/9 25/40/9
f 39/53/9 40/54/9 25/40/9
f 40/54/9 41/55/9 25/40/9
f 41/55/9 42/35/9 25/40/9
f 42/35/9 43/56/9 25/40/9
f 43/56/24 44/52/24 47/48/24
f 44/52/25 7/34/25 6/57/25
f 47/48/26 48/9/26 25/40/26
f 43/56/27 47/48/27 25/40/27
f 25/40/9 26/58/9 27/20/9
f 33/13/9 34/25/9 27/20/9
f 31/4/9 32/1/9 27/20/9
f 32/1/9 33/13/9 27/20/9
f 27/20/9 28/28/9 29/51/9
f 30/15/9 27/20/9 29/51/9
f 45/45/28 51/59/28 59/42/28
f 44/52/29 6/57/29 51/59/29
f 53/60/21 4/61/21 46/62/21
f 5/43/30 45/45/30 59/42/30
f 54/44/21 46/62/21 45/45/21
f 57/50/22 3/10/22 47/48/22
f 51/59/29 6/57/29 56/63/29
f 4/61/31 60/49/31 58/64/31
f 46/62/32 4/61/32 60/49/32
f 53/60/21 52/65/21 4/61/21
f 57/50/22 50/66/22 3/10/22
f 26/58/33 1/39/33 24/33/33
f 32/1/1 31/4/1 19/2/1
f 31/4/2 30/15/2 20/5/2
f 37/6/3 36/47/3 14/7/3
f 48/9/4 47/48/4 3/10/4
f 16/12/5 34/25/5 33/13/5
f 30/15/6 29/51/6 21/16/6
f 17/14/7 33/13/7 32/1/7
f 11/17/8 39/38/8 38/18/8
f 9/21/10 41/27/10 40/22/10
f 15/24/11 35/37/11 34/25/11
f 8/26/12 42/67/12 41/27/12
f 28/28/13 27/20/13 23/29/13
f 38/31/14 37/6/14 13/8/14
f 27/20/15 26/58/15 24/33/15
f 7/34/16 43/56/16 42/35/16
f 14/7/17 36/47/17 35/37/17
f 10/23/18 40/22/18 39/38/18
f 48/9/19 2/11/19 1/39/19
f 27/20/9 35/37/9 36/47/9
f 47/48/34 46/62/34 60/49/34
f 29/51/23 28/28/23 22/30/23
f 45/45/9 46/62/9 47/48/9
f 44/52/25 43/56/25 7/34/25
f 45/45/35 44/52/35 51/59/35
f 54/44/21 53/60/21 46/62/21
f 26/58/33 25/40/33 1/39/33
