# Blender v2.93.5 OBJ File: 'Aurora.blend'
# www.blender.org
mtllib Aurora.mtl
o Areas:building.007
v -2060.966309 41.290787 -4757.609863
v -1994.096680 40.871338 -4676.038086
v -1985.558594 41.427967 -4683.034668
v -1982.085449 41.834045 -4678.790039
v -1935.208984 41.338608 -4717.221680
v -1964.998047 40.701893 -4753.564453
v -1970.619629 40.126961 -4748.955566
v -2011.173340 44.048340 -4798.429199
v -2060.966309 82.740814 -4757.609863
v -1994.096680 82.740814 -4676.038086
v -1985.558594 82.740814 -4683.034668
v -1982.085449 82.740814 -4678.790039
v -1935.208984 82.740814 -4717.221680
v -1964.998047 82.740814 -4753.564453
v -1970.619629 82.740814 -4748.955566
v -2011.173340 82.740814 -4798.429199
vt 0.333952 0.724336
vt 0.024947 0.211424
vt 0.300380 0.222336
vt 0.037717 2.088697
vt 0.131975 1.955205
vt 0.112921 2.198028
vt 0.975548 0.227099
vt 0.323575 0.720540
vt 0.382811 0.214223
vt -0.003279 1.975312
vt 0.117566 1.893925
vt 0.041129 0.627595
vt 0.569048 1.912489
vt 0.656034 2.049822
vt 0.917111 0.906173
vt 0.103746 1.890040
vn 0.7734 0.0000 -0.6339
vn 0.6338 0.0000 0.7735
vn -0.7740 0.0000 0.6332
vn 0.6340 0.0000 0.7733
vn -0.6340 0.0000 -0.7734
vn -0.7734 0.0000 0.6340
vn 0.0000 1.0000 -0.0000
vn -0.6339 0.0000 -0.7734
vn 0.6339 0.0000 0.7734
vn -0.7739 0.0000 0.6334
vn -0.6340 0.0000 -0.7733
vn -0.6341 0.0000 -0.7733
usemtl Material
s off
f 14/1/1 5/2/1 6/3/1
f 3/4/2 10/5/2 2/6/2
f 8/7/1 15/8/1 7/9/1
f 4/10/3 11/11/3 3/4/3
f 13/12/4 4/10/4 5/2/4
f 9/13/5 8/7/5 1/14/5
f 10/5/6 1/14/6 2/6/6
f 9/13/7 15/8/7 16/15/7
f 11/11/7 13/12/7 15/8/7
f 9/13/7 10/5/7 11/11/7
f 13/12/7 14/1/7 15/8/7
f 15/8/8 6/3/8 7/9/8
f 14/1/1 13/12/1 5/2/1
f 3/4/9 11/11/9 10/5/9
f 8/7/1 16/15/1 15/8/1
f 4/10/10 12/16/10 11/11/10
f 13/12/4 12/16/4 4/10/4
f 9/13/11 16/15/11 8/7/11
f 10/5/6 9/13/6 1/14/6
f 9/13/7 11/11/7 15/8/7
f 11/11/7 12/16/7 13/12/7
f 15/8/12 14/1/12 6/3/12
l 11 16
l 12 15
