# Blender v2.93.5 OBJ File: 'AutoVokzal.blend'
# www.blender.org
mtllib AutoVokzal.mtl
o Areas:building.005
v -106.941895 24.685528 -1668.613281
v -122.727051 26.346359 -1609.014648
v -90.132812 26.152262 -1600.379883
v -87.171387 25.800592 -1611.567383
v -95.275879 25.708605 -1613.721680
v -88.128906 25.253443 -1640.719727
v -80.559082 25.865612 -1638.714844
v -74.881836 26.350256 -1660.111328
v -98.548340 24.923586 -1666.392578
v -106.941895 53.815022 -1668.613281
v -122.727051 53.815022 -1609.014648
v -90.132812 53.815022 -1600.379883
v -87.171387 53.815022 -1611.567383
v -95.275879 53.815022 -1613.721680
v -88.128906 53.815022 -1640.719727
v -80.559082 53.815022 -1638.714844
v -74.881836 53.815022 -1660.111328
v -98.548340 53.815022 -1666.392578
v -58.195312 27.811270 -1679.966797
v -64.162109 27.302591 -1657.327148
v -74.881836 26.350256 -1660.111328
v -98.548340 24.923586 -1666.392578
v -92.581543 25.544493 -1689.015625
v -58.195312 36.050697 -1679.966797
v -92.581543 36.050697 -1689.015625
v -98.548340 36.050697 -1666.392578
v -74.881836 36.050697 -1660.111328
v -64.162109 36.050697 -1657.327148
v -106.430176 26.249310 -1604.697266
v -106.430176 53.815022 -1604.697266
vt 1.024332 0.799789
vt 0.892576 1.903988
vt 0.438021 1.915799
vt -0.002490 0.798072
vt -0.056364 0.940843
vt 0.001577 0.294935
vt 1.149368 2.730238
vt 0.952599 2.919752
vt 0.186671 1.151993
vt 0.009525 2.110425
vt 0.421764 2.939242
vt 0.428535 -1.675313
vt 0.072689 -1.496541
vt 0.031046 -1.672402
vt 0.051260 -1.065927
vt -0.061239 -1.098212
vt 0.056882 0.025549
vt 0.417053 0.159178
vt -0.010722 0.295072
vt 0.980648 2.047762
vt 1.347937 2.175874
vt 1.060729 1.931971
vt 1.005554 1.420889
vt 0.267278 2.757002
vt 1.028521 0.287462
vt 0.363475 -0.019800
vt 0.389144 -1.568691
vt 0.367285 2.073703
vt 1.264449 1.072492
vt 0.182276 1.865791
vn 0.0000 1.0000 0.0000
vn 0.2558 0.0000 -0.9667
vn 0.2569 0.0000 -0.9664
vn 0.2565 0.0000 -0.9665
vn 0.9667 0.0000 0.2559
vn 0.9670 0.0000 0.2549
vn -0.2514 0.0000 0.9679
vn -0.9669 0.0000 -0.2550
vn -0.2565 0.0000 0.9665
vn -0.2560 0.0000 0.9667
vn -0.9667 0.0000 -0.2560
vn 0.2545 0.0000 -0.9671
vn 0.9666 0.0000 0.2565
vn -0.2561 0.0000 0.9667
usemtl Material.006
s off
f 11/1/1 14/2/1 15/3/1
f 10/4/2 9/5/2 1/6/2
f 14/2/3 4/7/3 5/8/3
f 18/9/4 8/10/4 9/5/4
f 15/3/5 5/8/5 6/11/5
f 19/12/6 28/13/6 20/14/6
f 20/14/7 27/15/7 21/16/7
f 26/17/8 23/18/8 22/19/8
f 21/16/9 26/17/9 22/19/9
f 13/20/5 3/21/5 4/7/5
f 12/22/1 14/2/1 30/23/1
f 7/24/10 15/3/10 6/11/10
f 2/25/11 10/4/11 1/6/11
f 25/26/12 19/12/12 23/18/12
f 25/26/1 27/15/1 24/27/1
f 8/10/13 16/28/13 7/24/13
f 30/23/14 2/25/14 29/29/14
f 18/9/1 10/4/1 15/3/1
f 10/4/1 11/1/1 15/3/1
f 11/1/1 30/23/1 14/2/1
f 17/30/1 15/3/1 16/28/1
f 28/13/1 24/27/1 27/15/1
f 12/22/14 29/29/14 3/21/14
f 10/4/2 18/9/2 9/5/2
f 14/2/3 13/20/3 4/7/3
f 18/9/4 17/30/4 8/10/4
f 15/3/5 14/2/5 5/8/5
f 19/12/6 24/27/6 28/13/6
f 20/14/7 28/13/7 27/15/7
f 26/17/8 25/26/8 23/18/8
f 21/16/9 27/15/9 26/17/9
f 13/20/5 12/22/5 3/21/5
f 12/22/1 13/20/1 14/2/1
f 7/24/10 16/28/10 15/3/10
f 2/25/11 11/1/11 10/4/11
f 25/26/12 24/27/12 19/12/12
f 25/26/1 26/17/1 27/15/1
f 8/10/13 17/30/13 16/28/13
f 30/23/14 11/1/14 2/25/14
f 17/30/1 18/9/1 15/3/1
f 12/22/14 30/23/14 29/29/14
l 11 13
