# Blender v2.93.5 OBJ File: 'Cerkov1.blend'
# www.blender.org
mtllib Cerkov1.mtl
o Areas:building.009
v -322.723633 35.190598 -2673.193359
v -352.612793 34.065353 -2710.421875
v -363.666992 33.640167 -2701.553711
v -369.622559 33.687576 -2708.979492
v -377.058594 33.567139 -2702.996094
v -371.069824 33.387558 -2695.537109
v -381.923340 33.808151 -2686.834961
v -353.136230 34.358856 -2650.981445
v -346.857910 34.537994 -2656.020508
v -341.280762 34.789444 -2649.091797
v -325.918457 35.097656 -2661.423828
v -330.404785 34.761932 -2667.009766
v -322.723633 55.190598 -2673.193359
v -352.612793 55.190598 -2710.421875
v -363.666992 55.190598 -2701.553711
v -369.622559 55.190598 -2708.979492
v -377.058594 55.190598 -2702.996094
v -371.069824 55.190598 -2695.537109
v -381.923340 55.190598 -2686.834961
v -353.136230 55.190598 -2650.981445
v -346.857910 55.190598 -2656.020508
v -341.280762 55.190598 -2649.091797
v -325.918457 55.190598 -2661.423828
v -330.404785 55.190598 -2667.009766
vt -0.488955 2.679418
vt 0.000709 2.328446
vt -0.273505 3.252253
vt 0.790025 3.308471
vt 0.786811 2.001610
vt 1.014582 2.756980
vt 0.875172 1.909828
vt 1.056620 1.536757
vt 1.020697 1.742610
vt -0.414568 1.131404
vt -0.107417 2.249306
vt 0.031351 2.569995
vt -0.046976 3.526280
vt 0.001269 0.016285
vt -0.001063 1.321386
vt -0.270442 0.507873
vt 1.178496 1.644983
vt 1.126362 2.242256
vt 1.030306 0.505025
vt 1.006055 0.012649
vt 1.163446 0.984267
vt 0.707357 2.466094
vt -0.011948 0.496585
vt -0.084091 1.417464
vn -0.7790 0.0000 0.6270
vn -0.6255 0.0000 -0.7802
vn 0.0000 1.0000 -0.0000
vn 0.6260 0.0000 0.7798
vn 0.6260 0.0000 0.7799
vn 0.6271 0.0000 0.7790
vn -0.6269 0.0000 -0.7791
vn 0.7798 0.0000 -0.6261
vn -0.6258 0.0000 -0.7800
vn -0.7798 0.0000 0.6261
vn 0.7797 0.0000 -0.6262
vn 0.7801 0.0000 -0.6256
vn 0.6259 0.0000 0.7799
vn 0.7801 0.0000 -0.6257
usemtl Material.007
s off
f 10/1/1 21/2/1 9/3/1
f 7/4/2 18/5/2 6/6/2
f 17/7/3 15/8/3 16/9/3
f 11/10/4 22/11/4 10/1/4
f 9/3/5 20/12/5 8/13/5
f 1/14/6 24/15/6 12/16/6
f 17/7/7 4/17/7 5/18/7
f 14/19/8 1/14/8 2/20/8
f 15/8/9 2/20/9 3/21/9
f 18/5/10 5/18/10 6/6/10
f 22/11/3 24/15/3 21/2/3
f 24/15/11 11/10/11 12/16/11
f 19/22/3 21/2/3 18/5/3
f 8/13/10 19/22/10 7/4/10
f 14/19/3 24/15/3 13/23/3
f 15/8/3 21/2/3 24/15/3
f 4/17/12 15/8/12 3/21/12
f 10/1/1 22/11/1 21/2/1
f 7/4/2 19/22/2 18/5/2
f 17/7/3 18/5/3 15/8/3
f 11/10/4 23/24/4 22/11/4
f 9/3/13 21/2/13 20/12/13
f 1/14/6 13/23/6 24/15/6
f 17/7/7 16/9/7 4/17/7
f 14/19/8 13/23/8 1/14/8
f 15/8/9 14/19/9 2/20/9
f 18/5/10 17/7/10 5/18/10
f 22/11/3 23/24/3 24/15/3
f 24/15/11 23/24/11 11/10/11
f 19/22/3 20/12/3 21/2/3
f 8/13/10 20/12/10 19/22/10
f 14/19/3 15/8/3 24/15/3
f 15/8/3 18/5/3 21/2/3
f 4/17/14 16/9/14 15/8/14
