# Blender v2.93.5 OBJ File: 'Cerkov3.blend'
# www.blender.org
mtllib Cerkov3.mtl
o Cube.002_Cube.001
v -335.029999 75.274254 -2673.309326
v -332.029663 75.390228 -2675.524414
v -335.332367 75.274254 -2673.718750
v -332.332031 75.390228 -2675.933838
v -335.007568 74.378189 -2673.325928
v -332.007233 74.494164 -2675.541016
v -335.309937 74.378189 -2673.735352
v -332.309601 74.494164 -2675.950439
v -333.850281 70.771744 -2674.119385
v -333.850281 76.299210 -2674.119385
v -334.210907 70.771744 -2674.607666
v -334.210907 76.299210 -2674.607666
v -333.128845 70.771744 -2674.651855
v -333.128845 76.299210 -2674.651855
v -333.489471 70.771744 -2675.140381
v -333.489471 76.299210 -2675.140381
v -374.126282 74.490776 -2683.844971
v -371.125946 74.606750 -2686.060059
v -374.428650 74.490776 -2684.254639
v -371.428314 74.606750 -2686.469727
v -374.103851 73.594719 -2683.861572
v -371.103516 73.710686 -2686.076660
v -374.406219 73.594719 -2684.270996
v -371.405884 73.710686 -2686.486328
v -372.946564 69.988266 -2684.655029
v -372.946564 75.515732 -2684.655029
v -373.307190 69.988266 -2685.143555
v -373.307190 75.515732 -2685.143555
v -372.225128 69.988266 -2685.187744
v -372.225128 75.515732 -2685.187744
v -372.585754 69.988266 -2685.676025
v -372.585754 75.515732 -2685.676025
v -356.833038 75.201881 -2698.923096
v -353.832703 75.317856 -2701.138184
v -357.135406 75.201881 -2699.332520
v -354.135071 75.317856 -2701.547852
v -356.810638 74.305824 -2698.939697
v -353.810303 74.421791 -2701.154785
v -357.113007 74.305824 -2699.349121
v -354.112671 74.421791 -2701.564209
v -355.653320 70.699371 -2699.733154
v -355.653320 76.226837 -2699.733154
v -356.013947 70.699371 -2700.221436
v -356.013947 76.226837 -2700.221436
v -354.931915 70.699371 -2700.265625
v -354.931915 76.226837 -2700.265625
v -355.292542 70.699371 -2700.754150
v -355.292542 76.226837 -2700.754150
v -354.124237 74.544106 -2659.640869
v -351.123901 74.660080 -2661.855957
v -354.426605 74.544106 -2660.050293
v -351.426270 74.660080 -2662.265625
v -354.101837 73.648048 -2659.657471
v -351.101501 73.764015 -2661.872559
v -354.404205 73.648048 -2660.066895
v -351.403870 73.764015 -2662.281982
v -352.944519 70.041595 -2660.450928
v -352.944519 75.569061 -2660.450928
v -353.305145 70.041595 -2660.939209
v -353.305145 75.569061 -2660.939209
v -352.223114 70.041595 -2660.983398
v -352.223114 75.569061 -2660.983398
v -352.583740 70.041595 -2661.471924
v -352.583740 75.569061 -2661.471924
v -355.503021 85.535339 -2678.395996
v -351.135742 85.704147 -2681.620361
v -355.943146 85.535339 -2678.991943
v -351.575867 85.704147 -2682.216309
v -355.470398 84.231026 -2678.419922
v -351.103119 84.399841 -2681.644287
v -355.910522 84.231026 -2679.016113
v -351.543243 84.399834 -2682.240479
v -353.785828 78.981483 -2679.574951
v -353.785828 87.027260 -2679.574951
v -354.310760 78.981483 -2680.285889
v -354.310760 87.027260 -2680.285889
v -352.735748 78.981483 -2680.350342
v -352.735748 87.027260 -2680.350342
v -353.260681 78.981483 -2681.061279
v -353.260681 87.027260 -2681.061279
vt 0.625000 0.000000
vt 0.375000 0.250000
vt 0.375000 0.000000
vt 0.625000 0.250000
vt 0.375000 0.500000
vt 0.625000 0.500000
vt 0.375000 0.750000
vt 0.625000 0.750000
vt 0.375000 1.000000
vt 0.125000 0.750000
vt 0.125000 0.500000
vt 0.875000 0.500000
vt 0.625000 0.000000
vt 0.375000 0.250000
vt 0.375000 0.000000
vt 0.625000 0.500000
vt 0.375000 0.500000
vt 0.375000 0.750000
vt 0.625000 0.750000
vt 0.375000 1.000000
vt 0.125000 0.500000
vt 0.125000 0.750000
vt 0.875000 0.500000
vt 0.625000 0.000000
vt 0.375000 0.250000
vt 0.375000 0.000000
vt 0.625000 0.250000
vt 0.375000 0.500000
vt 0.625000 0.500000
vt 0.375000 0.750000
vt 0.625000 0.750000
vt 0.375000 1.000000
vt 0.125000 0.750000
vt 0.125000 0.500000
vt 0.875000 0.500000
vt 0.625000 0.000000
vt 0.375000 0.250000
vt 0.375000 0.000000
vt 0.625000 0.500000
vt 0.375000 0.500000
vt 0.375000 0.750000
vt 0.625000 0.750000
vt 0.375000 1.000000
vt 0.125000 0.750000
vt 0.125000 0.500000
vt 0.875000 0.500000
vt 0.625000 0.000000
vt 0.375000 0.250000
vt 0.375000 0.000000
vt 0.625000 0.250000
vt 0.375000 0.500000
vt 0.625000 0.500000
vt 0.375000 0.750000
vt 0.625000 0.750000
vt 0.375000 1.000000
vt 0.125000 0.750000
vt 0.125000 0.500000
vt 0.875000 0.500000
vt 0.375000 0.000000
vt 0.625000 0.250000
vt 0.375000 0.250000
vt 0.625000 0.500000
vt 0.375000 0.500000
vt 0.375000 0.750000
vt 0.625000 0.750000
vt 0.375000 1.000000
vt 0.125000 0.750000
vt 0.125000 0.500000
vt 0.875000 0.500000
vt 0.625000 0.000000
vt 0.375000 0.250000
vt 0.375000 0.000000
vt 0.625000 0.250000
vt 0.375000 0.500000
vt 0.625000 0.500000
vt 0.375000 0.750000
vt 0.625000 0.750000
vt 0.375000 1.000000
vt 0.125000 0.750000
vt 0.125000 0.500000
vt 0.875000 0.500000
vt 0.625000 0.000000
vt 0.375000 0.250000
vt 0.375000 0.000000
vt 0.625000 0.500000
vt 0.375000 0.500000
vt 0.375000 0.750000
vt 0.625000 0.750000
vt 0.375000 1.000000
vt 0.125000 0.500000
vt 0.125000 0.750000
vt 0.875000 0.500000
vt 0.625000 0.000000
vt 0.375000 0.250000
vt 0.375000 0.000000
vt 0.625000 0.250000
vt 0.375000 0.500000
vt 0.625000 0.500000
vt 0.375000 0.750000
vt 0.625000 0.750000
vt 0.375000 1.000000
vt 0.125000 0.750000
vt 0.125000 0.500000
vt 0.875000 0.500000
vt 0.375000 0.000000
vt 0.625000 0.250000
vt 0.375000 0.250000
vt 0.625000 0.500000
vt 0.375000 0.500000
vt 0.375000 0.750000
vt 0.625000 0.750000
vt 0.375000 1.000000
vt 0.125000 0.750000
vt 0.125000 0.500000
vt 0.875000 0.500000
vt 0.625000 1.000000
vt 0.875000 0.750000
vt 0.625000 0.250000
vt 0.625000 1.000000
vt 0.875000 0.750000
vt 0.625000 1.000000
vt 0.875000 0.750000
vt 0.625000 0.250000
vt 0.625000 1.000000
vt 0.875000 0.750000
vt 0.625000 1.000000
vt 0.875000 0.750000
vt 0.625000 0.000000
vt 0.625000 1.000000
vt 0.875000 0.750000
vt 0.625000 1.000000
vt 0.875000 0.750000
vt 0.625000 0.250000
vt 0.625000 1.000000
vt 0.875000 0.750000
vt 0.625000 1.000000
vt 0.875000 0.750000
vt 0.625000 0.000000
vt 0.625000 1.000000
vt 0.875000 0.750000
vn -0.0250 0.9995 0.0185
vn -0.5940 0.0000 -0.8045
vn 0.0250 -0.9995 -0.0185
vn 0.5939 -0.0000 0.8046
vn -0.8039 -0.0310 0.5940
vn 0.8043 0.0311 -0.5935
vn -0.8044 0.0000 0.5941
vn -0.5941 0.0000 -0.8044
vn 0.8046 0.0000 -0.5938
vn 0.5936 0.0000 0.8048
vn 0.0000 -1.0000 0.0000
vn 0.0000 1.0000 0.0000
vn -0.5940 -0.0002 -0.8045
vn 0.5940 -0.0000 0.8045
vn -0.8046 0.0000 0.5938
vn 0.8044 0.0000 -0.5941
vn -0.5939 0.0000 -0.8046
vn 0.5940 -0.0001 0.8045
vn -0.8039 -0.0311 0.5940
vn 0.8043 0.0309 -0.5935
vn 0.5936 0.0000 0.8047
vn -0.5940 0.0001 -0.8045
vn 0.5939 0.0001 0.8045
vn -0.8040 -0.0311 0.5938
vn 0.8044 0.0311 -0.5932
vn -0.5939 0.0000 -0.8045
vn 0.0250 -0.9995 -0.0184
vn 0.8035 0.0311 -0.5945
vn 0.5941 0.0000 0.8044
vn -0.5940 0.0001 -0.8044
vn 0.5939 -0.0001 0.8045
vn -0.8043 -0.0311 0.5934
vn -0.5936 0.0000 -0.8048
vn -0.5940 -0.0001 -0.8044
vn -0.8043 -0.0311 0.5935
vn -0.5939 -0.0001 -0.8045
vn 0.8043 0.0310 -0.5935
vn 0.5940 0.0001 0.8045
vn -0.8040 -0.0310 0.5938
vn 0.8039 0.0310 -0.5940
usemtl Material.009
s off
f 2/1/1 3/2/1 1/3/1
f 4/4/2 7/5/2 3/2/2
f 8/6/3 5/7/3 7/5/3
f 6/8/4 1/9/4 5/7/4
f 7/5/5 1/10/5 3/11/5
f 4/12/6 6/8/6 8/6/6
f 10/13/7 11/14/7 9/15/7
f 11/14/8 16/16/8 15/17/8
f 16/16/9 13/18/9 15/17/9
f 14/19/10 9/20/10 13/18/10
f 11/21/11 13/18/11 9/22/11
f 12/23/12 14/19/12 16/16/12
f 18/24/1 19/25/1 17/26/1
f 20/27/13 23/28/13 19/25/13
f 24/29/3 21/30/3 23/28/3
f 22/31/14 17/32/14 21/30/14
f 23/28/5 17/33/5 19/34/5
f 20/35/6 22/31/6 24/29/6
f 26/36/15 27/37/15 25/38/15
f 27/37/8 32/39/8 31/40/8
f 32/39/16 29/41/16 31/40/16
f 30/42/4 25/43/4 29/41/4
f 31/40/11 25/44/11 27/45/11
f 28/46/12 30/42/12 32/39/12
f 34/47/1 35/48/1 33/49/1
f 36/50/17 39/51/17 35/48/17
f 40/52/3 37/53/3 39/51/3
f 38/54/18 33/55/18 37/53/18
f 39/51/19 33/56/19 35/57/19
f 36/58/20 38/54/20 40/52/20
f 41/59/7 44/60/7 43/61/7
f 43/61/8 48/62/8 47/63/8
f 48/62/9 45/64/9 47/63/9
f 46/65/21 41/66/21 45/64/21
f 47/63/11 41/67/11 43/68/11
f 44/69/12 46/65/12 48/62/12
f 50/70/1 51/71/1 49/72/1
f 52/73/8 55/74/8 51/71/8
f 56/75/3 53/76/3 55/74/3
f 54/77/18 49/78/18 53/76/18
f 55/74/19 49/79/19 51/80/19
f 52/81/20 54/77/20 56/75/20
f 58/82/7 59/83/7 57/84/7
f 59/83/8 64/85/8 63/86/8
f 64/85/9 61/87/9 63/86/9
f 62/88/4 57/89/4 61/87/4
f 59/90/11 61/87/11 57/91/11
f 60/92/12 62/88/12 64/85/12
f 66/93/1 67/94/1 65/95/1
f 68/96/22 71/97/22 67/94/22
f 72/98/3 69/99/3 71/97/3
f 70/100/23 65/101/23 69/99/23
f 71/97/24 65/102/24 67/103/24
f 68/104/25 70/100/25 72/98/25
f 73/105/7 76/106/7 75/107/7
f 75/107/2 80/108/2 79/109/2
f 80/108/16 77/110/16 79/109/16
f 78/111/14 73/112/14 77/110/14
f 79/109/11 73/113/11 75/114/11
f 76/115/12 78/111/12 80/108/12
f 2/1/1 4/4/1 3/2/1
f 4/4/26 8/6/26 7/5/26
f 8/6/27 6/8/27 5/7/27
f 6/8/14 2/116/14 1/9/14
f 7/5/19 5/7/19 1/10/19
f 4/12/28 2/117/28 6/8/28
f 10/13/7 12/118/7 11/14/7
f 11/14/17 12/118/17 16/16/17
f 16/16/16 14/19/16 13/18/16
f 14/19/29 10/119/29 9/20/29
f 11/21/11 15/17/11 13/18/11
f 12/23/12 10/120/12 14/19/12
f 18/24/1 20/27/1 19/25/1
f 20/27/30 24/29/30 23/28/30
f 24/29/3 22/31/3 21/30/3
f 22/31/31 18/121/31 17/32/31
f 23/28/32 21/30/32 17/33/32
f 20/35/6 18/122/6 22/31/6
f 26/36/7 28/123/7 27/37/7
f 27/37/33 28/123/33 32/39/33
f 32/39/16 30/42/16 29/41/16
f 30/42/29 26/124/29 25/43/29
f 31/40/11 29/41/11 25/44/11
f 28/46/12 26/125/12 30/42/12
f 34/47/1 36/50/1 35/48/1
f 36/50/34 40/52/34 39/51/34
f 40/52/27 38/54/27 37/53/27
f 38/54/4 34/126/4 33/55/4
f 39/51/35 37/53/35 33/56/35
f 36/58/6 34/127/6 38/54/6
f 41/59/7 42/128/7 44/60/7
f 43/61/17 44/60/17 48/62/17
f 48/62/16 46/65/16 45/64/16
f 46/65/29 42/129/29 41/66/29
f 47/63/11 45/64/11 41/67/11
f 44/69/12 42/130/12 46/65/12
f 50/70/1 52/73/1 51/71/1
f 52/73/36 56/75/36 55/74/36
f 56/75/3 54/77/3 53/76/3
f 54/77/4 50/131/4 49/78/4
f 55/74/35 53/76/35 49/79/35
f 52/81/37 50/132/37 54/77/37
f 58/82/7 60/133/7 59/83/7
f 59/83/17 60/133/17 64/85/17
f 64/85/16 62/88/16 61/87/16
f 62/88/4 58/134/4 57/89/4
f 59/90/11 63/86/11 61/87/11
f 60/92/12 58/135/12 62/88/12
f 66/93/1 68/96/1 67/94/1
f 68/96/2 72/98/2 71/97/2
f 72/98/3 70/100/3 69/99/3
f 70/100/38 66/136/38 65/101/38
f 71/97/39 69/99/39 65/102/39
f 68/104/40 66/137/40 70/100/40
f 73/105/7 74/138/7 76/106/7
f 75/107/2 76/106/2 80/108/2
f 80/108/16 78/111/16 77/110/16
f 78/111/14 74/139/14 73/112/14
f 79/109/11 77/110/11 73/113/11
f 76/115/12 74/140/12 78/111/12
