# Blender v2.93.5 OBJ File: ''
# www.blender.org
mtllib EcoTower.mtl
o c_Areas:building.013_Areas:building.001
v -4926.229980 85.385307 -7179.570312
v -4957.443848 313.718536 -7257.434570
v -4926.229980 313.718506 -7179.570312
v -4900.036133 313.718536 -7213.949707
v -4900.036133 85.585693 -7213.949707
v -4957.443848 88.124802 -7257.434570
v -4983.437012 86.872986 -7222.905273
v -4983.437012 313.718536 -7222.905273
vt 3.737658 -2.499274
vt 2.942076 1.778607
vt 2.942076 -1.787875
vt 0.809854 3.072965
vt -0.960740 -2.462278
vt 0.809854 -2.498570
vt -2.737658 3.067370
vt -0.960740 -2.437324
vt -0.960740 3.067370
vt 1.873792 -2.494384
vt 0.808273 3.072261
vt 0.808273 -2.499274
vt 2.939310 3.035950
vt 1.873792 -2.468725
vt 2.939310 -2.499274
vt 3.737658 1.057722
vt -0.960740 3.072965
vt -2.737658 -2.499274
vt 1.873792 3.072261
vt 1.873792 3.035950
vn -0.0000 1.0000 0.0000
vn -0.6057 0.0000 0.7957
vn -0.6016 0.0000 0.7988
vn 0.6060 -0.0000 -0.7955
vn 0.6014 -0.0000 -0.7989
vn 0.7954 0.0000 0.6061
vn 0.7954 0.0000 0.6060
vn -0.7989 0.0000 -0.6014
vn 0.6059 0.0000 -0.7955
usemtl Material.001
s 1
f 8/1/1 4/2/1 2/3/1
f 3/4/2 7/5/3 1/6/2
f 4/7/4 6/8/5 2/9/5
f 5/10/6 3/11/7 1/12/6
f 8/13/8 6/14/8 7/15/8
f 8/1/1 3/16/1 4/2/1
f 3/4/2 8/17/3 7/5/3
f 4/7/4 5/18/9 6/8/5
f 5/10/6 4/19/7 3/11/7
f 8/13/8 2/20/8 6/14/8
