# Blender v2.93.5 OBJ File: 'Intour.blend'
# www.blender.org
mtllib Intour.mtl
o Areas:building.012_Areas:building.011
v -5549.961426 83.087494 -7410.071289
v -5549.961426 164.701050 -7410.071289
v -5494.812500 83.087494 -7475.791992
v -5494.812500 164.701050 -7475.791992
v -5509.632812 83.087494 -7376.229492
v -5509.632812 164.701050 -7376.229492
v -5454.483887 83.087494 -7441.950195
v -5454.483887 164.701050 -7441.950195
vt 0.424596 0.578019
vt 0.849910 0.710172
vt 0.568588 0.578055
vt 0.127744 0.694627
vt 0.831019 0.156949
vt 0.091538 0.167760
vt 0.426911 0.406867
vt 0.566490 0.407509
vn 0.0000 1.0000 0.0000
vn 0.7660 0.0000 0.6428
vn -0.6428 0.0000 0.7660
vn -0.7660 0.0000 -0.6428
vn 0.0000 -1.0000 -0.0000
vn 0.6428 0.0000 -0.7660
usemtl Material.013
s off
f 2/1/1 8/2/1 4/3/1
f 6/4/2 7/5/2 8/2/2
f 2/1/3 5/6/3 6/4/3
f 4/3/4 1/7/4 2/1/4
f 7/5/5 1/7/5 3/8/5
f 8/2/6 3/8/6 4/3/6
f 2/1/1 6/4/1 8/2/1
f 6/4/2 5/6/2 7/5/2
f 2/1/3 1/7/3 5/6/3
f 4/3/4 3/8/4 1/7/4
f 7/5/5 5/6/5 1/7/5
f 8/2/6 7/5/6 3/8/6
