# Blender v3.0.0 OBJ File: ''
# www.blender.org
mtllib MacDak.mtl
o Cube_Cube.001
v -9103.366211 62.797928 -10573.725586
v -9103.366211 99.941162 -10573.725586
v -9014.657227 62.797928 -10684.550781
v -9014.657227 99.941162 -10684.550781
v -9076.114258 62.797928 -10551.912109
v -9076.114258 99.941162 -10551.912109
v -8987.405273 62.797928 -10662.737305
v -8987.405273 99.941162 -10662.737305
vt 0.642940 0.447305
vt 0.730837 0.598435
vt 0.642940 0.598435
vt 0.625000 0.250000
vt 0.375000 0.500000
vt 0.375000 0.250000
vt 0.726859 0.452184
vt 0.659517 0.595724
vt 0.659517 0.452184
vt 0.993760 0.931263
vt 0.098635 0.000894
vt 1.006359 0.000894
vt 0.125000 0.750000
vt 0.125000 0.500000
vt 0.559760 0.817102
vt 0.142290 0.912868
vt 0.144456 0.799203
vt 0.121733 0.912317
vt 0.730837 0.447305
vt 0.625000 0.500000
vt 0.726859 0.595724
vt 0.375000 0.750000
vt 0.557594 0.930767
vn -0.7807 0.0000 -0.6249
vn 0.6249 0.0000 -0.7807
vn 0.7807 0.0000 0.6249
vn -0.6249 0.0000 0.7807
vn 0.0000 -1.0000 0.0000
vn 0.0000 1.0000 0.0000
usemtl Material.006
s off
f 2/1/1 3/2/1 1/3/1
f 4/4/2 7/5/2 3/6/2
f 8/7/3 5/8/3 7/9/3
f 6/10/4 1/11/4 5/12/4
f 7/5/5 1/13/5 3/14/5
f 4/15/6 6/16/6 8/17/6
f 6/10/4 2/18/4 1/11/4
f 2/1/1 4/19/1 3/2/1
f 4/4/2 8/20/2 7/5/2
f 8/7/3 6/21/3 5/8/3
f 7/5/5 5/22/5 1/13/5
f 4/15/6 2/23/6 6/16/6
