# Blender v2.93.5 OBJ File: 'Zapor.blend'
# www.blender.org
mtllib Zapor.mtl
o Cube.001_Cube.003
v -5030.866211 84.124786 -7396.492676
v -5030.866211 171.110443 -7396.492676
v -5156.233887 84.124786 -7497.385254
v -5156.233887 171.110443 -7497.385254
v -4968.546387 84.124786 -7473.930176
v -4968.546387 171.110443 -7473.930176
v -5093.914062 84.124786 -7574.822754
v -5093.914062 171.110443 -7574.822754
vt -0.731383 0.997058
vt -0.363221 0.112141
vt -0.363100 0.996938
vt -0.599665 0.517178
vt -0.731503 0.112261
vt -0.253663 -0.782657
vt -0.231263 1.401856
vt -0.246851 1.406736
vt 0.121311 0.521818
vt 0.863666 0.116900
vt 0.873464 0.516698
vt 0.114739 0.102020
vt -0.609462 0.117381
vt -0.241300 -0.767537
vn 0.6270 0.0000 -0.7790
vn 0.7791 0.0000 0.6270
vn 0.0000 -1.0000 -0.0000
vn 0.0000 1.0000 -0.0000
vn -0.6270 0.0000 0.7790
vn -0.7790 0.0000 -0.6270
vn 0.6270 0.0000 -0.7791
vn -0.7791 0.0000 -0.6270
usemtl Material.011
s off
f 6/1/1 7/2/1 8/3/1
f 2/4/2 5/5/2 6/1/2
f 5/5/3 3/6/3 7/2/3
f 2/7/4 8/3/4 4/8/4
f 4/9/5 1/10/5 2/11/5
f 8/3/6 3/12/6 4/9/6
f 6/1/7 5/5/7 7/2/7
f 2/4/2 1/13/2 5/5/2
f 5/5/3 1/14/3 3/6/3
f 2/7/4 6/1/4 8/3/4
f 4/9/5 3/12/5 1/10/5
f 8/3/8 7/2/8 3/12/8
